<?xml version="1.0" standalone="no"?>
<!DOCTYPE svg PUBLIC "-//W3C//DTD SVG 20010904//EN"
 "http://www.w3.org/TR/2001/REC-SVG-20010904/DTD/svg10.dtd">
<svg version="1.0" xmlns="http://www.w3.org/2000/svg"
 width="700.000000pt" height="700.000000pt" viewBox="0 0 700.000000 700.000000"
 preserveAspectRatio="xMidYMid meet">
<metadata>
Created by potrace 1.11, written by Peter Selinger 2001-2013
</metadata>
<g transform="translate(0.000000,700.000000) scale(0.100000,-0.100000)"
fill="#000000" stroke="none">
<path d="M2270 6986 c-171 -47 -315 -193 -346 -351 -5 -22 -9 -43 -10 -47 -1
-5 -2 -135 -3 -290 l-2 -283 -62 -29 c-105 -50 -202 -166 -238 -286 -32 -107
-17 -244 38 -354 34 -67 136 -166 207 -201 l56 -27 2 -1792 3 -1791 171 -305
c94 -168 184 -330 201 -360 16 -30 41 -75 55 -100 24 -41 88 -157 152 -272 14
-27 38 -69 52 -95 15 -27 40 -73 57 -103 75 -138 123 -193 209 -244 98 -57 79
-56 1089 -53 924 2 928 2 956 23 46 35 73 82 73 131 0 55 -20 94 -67 130 l-36
28 -631 2 c-347 1 -657 2 -690 3 -45 0 -56 3 -48 13 5 6 23 37 40 67 16 30 96
174 177 320 81 146 161 290 178 320 30 55 194 348 251 450 l31 55 0 1784 c1
1755 1 1784 20 1795 77 43 134 84 167 119 129 138 165 320 98 499 -40 108
-140 212 -247 259 -18 8 -33 16 -34 19 -1 3 -2 138 -4 300 -2 269 -4 300 -23
352 -56 155 -180 271 -335 313 -72 19 -1437 20 -1507 1z"/>
<path d="M5185 302 c-49 -23 -69 -46 -84 -94 -31 -96 30 -190 131 -204 121
-17 210 105 160 218 -36 82 -127 117 -207 80z"/>
</g>
</svg>
